<svg xmlns="http://www.w3.org/2000/svg"  viewBox="0 0 100 100" width="200px" height="200px"><path fill="#c8ede6" d="M87.214,55.881c0.3-0.616,0.566-1.264,0.796-1.943c2.633-7.77-1.349-17.078-9.733-19.325C77.37,23.23,69.37,15.421,60.335,14.088c-10.341-1.525-19.814,5.044-22.966,15.485c-3.799-1.346-7.501-1.182-10.99,0.857c-1.583,0.732-3.031,1.812-4.33,3.233c-1.907,2.086-3.147,4.719-3.652,7.495c-0.748,0.118-1.483,0.236-2.176,0.484c-4.04,1.449-6.589,4.431-7.288,8.923c-0.435,2.797,0.443,5.587,0.933,6.714c1.935,4.455,6.422,6.98,10.981,6.312c0.227-0.033,0.557,0.069,0.752,0.233c0.241,7.12,3.698,13.417,8.884,17.014c8.321,5.772,19.027,3.994,25.781-3.921c2.894,2.96,6.338,4.398,10.384,3.876c4.023-0.519,7.147-2.739,9.426-6.349c1.053,0.283,2.051,0.691,3.083,0.804c4.042,0.442,7.297-1.184,9.732-4.8c0.083-0.124,0.203-0.219,0.306-0.328c0.348-0.798,0.696-1.596,1.044-2.394c0.155-1.211,0.429-2.423,0.443-3.632C90.722,60.839,89.39,57.871,87.214,55.881z"/><path fill="#fdfcef" d="M43.131,68.193c0,0,11.691,0,11.762,0c2.7,0,4.888-2.189,4.888-4.889c0-2.355-1.666-4.321-3.884-4.784c0.026-0.206,0.043-0.415,0.043-0.628c0-2.796-2.267-5.063-5.063-5.063c-1.651,0-3.113,0.794-4.037,2.017c-0.236-3.113-3.017-5.514-6.27-5.116c-2.379,0.291-4.346,2.13-4.784,4.486c-0.14,0.756-0.126,1.489,0.014,2.177c-0.638-0.687-1.546-1.119-2.557-1.119c-1.85,0-3.361,1.441-3.48,3.261c-0.84-0.186-1.754-0.174-2.717,0.188c-1.84,0.691-3.15,2.423-3.227,4.387c-0.109,2.789,2.12,5.085,4.885,5.085c0.21,0,0.948,0,1.118,0h10.151"/><path fill="#472b29" d="M54.893,68.693H43.131c-0.276,0-0.5-0.224-0.5-0.5s0.224-0.5,0.5-0.5h11.762c2.42,0,4.389-1.969,4.389-4.389c0-2.066-1.466-3.873-3.486-4.295c-0.255-0.053-0.426-0.292-0.394-0.55c0.023-0.186,0.039-0.375,0.039-0.567c0-2.516-2.047-4.563-4.563-4.563c-1.438,0-2.765,0.663-3.638,1.818c-0.125,0.166-0.339,0.239-0.54,0.178c-0.199-0.059-0.342-0.234-0.357-0.441c-0.104-1.377-0.779-2.67-1.85-3.549c-1.082-0.887-2.454-1.284-3.86-1.109c-2.166,0.265-3.956,1.943-4.353,4.081c-0.125,0.667-0.12,1.335,0.012,1.986c0.045,0.219-0.062,0.442-0.261,0.544s-0.442,0.06-0.595-0.104c-0.575-0.619-1.353-0.959-2.19-0.959c-1.569,0-2.878,1.227-2.981,2.794c-0.01,0.146-0.083,0.28-0.199,0.367s-0.267,0.118-0.408,0.088c-0.841-0.186-1.636-0.132-2.433,0.167c-1.669,0.626-2.836,2.209-2.903,3.938c-0.047,1.207,0.387,2.35,1.222,3.218c0.835,0.868,1.958,1.347,3.163,1.347h11.269c0.276,0,0.5,0.224,0.5,0.5s-0.224,0.5-0.5,0.5H28.705c-1.479,0-2.858-0.587-3.884-1.654c-1.025-1.066-1.558-2.469-1.5-3.95c0.083-2.126,1.51-4.069,3.551-4.835c0.8-0.3,1.628-0.398,2.467-0.299c0.377-1.823,1.998-3.182,3.905-3.182c0.684,0,1.354,0.179,1.944,0.51c0-0.385,0.035-0.773,0.107-1.159c0.476-2.562,2.62-4.573,5.215-4.891c1.68-0.208,3.32,0.266,4.616,1.328c1.003,0.823,1.716,1.951,2.038,3.193c1.012-0.916,2.319-1.425,3.714-1.425c3.067,0,5.563,2.496,5.563,5.563c0,0.083-0.002,0.166-0.007,0.249c2.254,0.672,3.848,2.777,3.848,5.164C60.282,66.276,57.864,68.693,54.893,68.693z"/><path fill="#fdfcef" d="M40.298,57.424c-1.808-0.119-3.365,1.13-3.476,2.789c-0.014,0.206-0.005,0.409,0.025,0.606c-0.349-0.394-0.865-0.661-1.458-0.7c-1.085-0.071-2.022,0.645-2.158,1.62c-0.197-0.054-0.403-0.09-0.616-0.104c-1.582-0.104-2.944,0.989-3.042,2.441"/><path fill="#472b29" d="M29.574,64.325c-0.006,0-0.012,0-0.017,0c-0.138-0.009-0.242-0.128-0.233-0.266c0.107-1.586,1.582-2.783,3.308-2.673c0.135,0.009,0.272,0.027,0.409,0.053c0.273-0.968,1.258-1.64,2.365-1.568c0.419,0.027,0.821,0.163,1.163,0.384c0.001-0.019,0.002-0.039,0.003-0.058c0.121-1.793,1.792-3.144,3.743-3.022c0.138,0.009,0.242,0.128,0.233,0.266c-0.009,0.138-0.131,0.244-0.266,0.233c-1.66-0.112-3.108,1.037-3.21,2.557c-0.012,0.184-0.004,0.37,0.023,0.552c0.017,0.109-0.041,0.217-0.141,0.264c-0.1,0.046-0.22,0.022-0.293-0.061c-0.318-0.359-0.787-0.583-1.287-0.616c-0.955-0.064-1.775,0.555-1.894,1.405c-0.01,0.071-0.05,0.134-0.11,0.174c-0.059,0.04-0.134,0.052-0.203,0.033c-0.189-0.051-0.381-0.084-0.568-0.096c-1.439-0.103-2.687,0.895-2.776,2.208C29.814,64.224,29.704,64.325,29.574,64.325z"/><path fill="#fdfcef" d="M56.873,59.093c-1.699-0.801-3.664-0.234-4.389,1.267c-0.09,0.186-0.157,0.379-0.201,0.574"/><path fill="#472b29" d="M52.283,61.183c-0.018,0-0.037-0.002-0.056-0.006c-0.135-0.031-0.219-0.165-0.188-0.299c0.049-0.217,0.124-0.428,0.22-0.627c0.783-1.621,2.9-2.244,4.72-1.384c0.125,0.059,0.179,0.208,0.12,0.333c-0.059,0.126-0.21,0.178-0.333,0.12c-1.572-0.742-3.393-0.227-4.057,1.149c-0.08,0.165-0.142,0.34-0.183,0.521C52.5,61.105,52.397,61.183,52.283,61.183z"/><path fill="#fff" d="M16.879 47.917H6.849c-.276 0-.5-.224-.5-.5s.224-.5.5-.5h10.03c.276 0 .5.224.5.5S17.155 47.917 16.879 47.917zM19.76 47.917h-1.446c-.276 0-.5-.224-.5-.5s.224-.5.5-.5h1.446c.276 0 .5.224.5.5S20.037 47.917 19.76 47.917zM23.814 47.917h-2.546c-.276 0-.5-.224-.5-.5s.224-.5.5-.5h2.546c.276 0 .5.224.5.5S24.091 47.917 23.814 47.917zM23.814 49.782h-9.616c-.276 0-.5-.224-.5-.5s.224-.5.5-.5h9.616c.276 0 .5.224.5.5S24.091 49.782 23.814 49.782zM12.467 49.782h-.58c-.276 0-.5-.224-.5-.5s.224-.5.5-.5h.58c.276 0 .5.224.5.5S12.743 49.782 12.467 49.782zM10.09 49.782H8.634c-.276 0-.5-.224-.5-.5s.224-.5.5-.5h1.456c.276 0 .5.224.5.5S10.366 49.782 10.09 49.782zM19.226 46.053h-5.027c-.276 0-.5-.224-.5-.5s.224-.5.5-.5h5.027c.276 0 .5.224.5.5S19.502 46.053 19.226 46.053zM19.226 44.187h-1.257c-.276 0-.5-.224-.5-.5s.224-.5.5-.5h1.257c.276 0 .5.224.5.5S19.502 44.187 19.226 44.187zM15.957 51.647h-1.759c-.276 0-.5-.224-.5-.5s.224-.5.5-.5h1.759c.276 0 .5.224.5.5S16.233 51.647 15.957 51.647zM70.057 21.64h-10.03c-.276 0-.5-.224-.5-.5s.224-.5.5-.5h10.03c.276 0 .5.224.5.5S70.333 21.64 70.057 21.64zM72.938 21.64h-1.446c-.276 0-.5-.224-.5-.5s.224-.5.5-.5h1.446c.276 0 .5.224.5.5S73.214 21.64 72.938 21.64zM76.993 21.64h-2.546c-.276 0-.5-.224-.5-.5s.224-.5.5-.5h2.546c.276 0 .5.224.5.5S77.269 21.64 76.993 21.64zM74.967 17.91H65.35c-.276 0-.5-.224-.5-.5s.224-.5.5-.5h9.617c.276 0 .5.224.5.5S75.243 17.91 74.967 17.91zM63.619 17.91h-.58c-.276 0-.5-.224-.5-.5s.224-.5.5-.5h.58c.276 0 .5.224.5.5S63.895 17.91 63.619 17.91zM61.242 17.91h-1.457c-.276 0-.5-.224-.5-.5s.224-.5.5-.5h1.457c.276 0 .5.224.5.5S61.518 17.91 61.242 17.91zM72.404 19.776h-5.028c-.276 0-.5-.224-.5-.5s.224-.5.5-.5h5.028c.276 0 .5.224.5.5S72.68 19.776 72.404 19.776z"/><path fill="#fff" d="M72.404 17.91h-1.257c-.276 0-.5-.224-.5-.5s.224-.5.5-.5h1.257c.276 0 .5.224.5.5S72.68 17.91 72.404 17.91zM65.921 19.776h-1.759c-.276 0-.5-.224-.5-.5s.224-.5.5-.5h1.759c.276 0 .5.224.5.5S66.197 19.776 65.921 19.776z"/><path fill="#bd977c" d="M71.793,39.122v1.522v24.907c0,2.592-2.121,4.713-4.713,4.713H40.835c-2.592,0-4.713-2.121-4.713-4.713V40.597v-1.475"/><path fill="#472b29" d="M67.08,70.964H40.835c-2.985,0-5.413-2.428-5.413-5.413V39.122c0-0.387,0.313-0.7,0.7-0.7s0.7,0.313,0.7,0.7v26.429c0,2.213,1.8,4.013,4.013,4.013H67.08c2.213,0,4.013-1.8,4.013-4.013V39.122c0-0.387,0.313-0.7,0.7-0.7s0.7,0.313,0.7,0.7v26.429C72.494,68.536,70.065,70.964,67.08,70.964z"/><path fill="#bd977c" d="M68.679,56.392v4.971c0,5.598-2.536,5.787-5.636,5.787H44.872c-4.11,0-5.385-0.218-5.38-5.84V50.73"/><path fill="#472b29" d="M63.043 67.525h-18.17c-2.169 0-3.553-.061-4.485-.91-.917-.834-1.272-2.321-1.27-5.306V50.73c0-.207.168-.375.375-.375s.375.168.375.375v10.58c-.002 2.71.294 4.086 1.025 4.75.732.667 1.992.714 3.98.714h18.17c2.823 0 5.261 0 5.261-5.412v-4.971c0-.207.168-.375.375-.375s.375.168.375.375v4.971C69.054 67.071 66.449 67.525 63.043 67.525zM68.679 55.202c-.207 0-.375-.168-.375-.375v-.651c0-.207.168-.375.375-.375s.375.168.375.375v.651C69.054 55.034 68.886 55.202 68.679 55.202zM68.679 52.935c-.207 0-.375-.168-.375-.375v-1.708c0-.207.168-.375.375-.375s.375.168.375.375v1.708C69.054 52.767 68.886 52.935 68.679 52.935z"/><path fill="#fdfcee" d="M58.083,55.826h-9.626c-0.934,0-1.699-0.764-1.699-1.699v0c0-0.934,0.764-1.699,1.699-1.699h9.626c0.934,0,1.699,0.764,1.699,1.699v0C59.782,55.061,59.017,55.826,58.083,55.826z"/><path fill="#472b29" d="M58.083,56.2h-9.625c-1.144,0-2.074-0.93-2.074-2.074c0-1.143,0.93-2.073,2.074-2.073h9.625c1.144,0,2.074,0.93,2.074,2.073C60.157,55.27,59.226,56.2,58.083,56.2z M48.457,52.804c-0.73,0-1.324,0.594-1.324,1.323c0,0.73,0.594,1.324,1.324,1.324h9.625c0.73,0,1.324-0.594,1.324-1.324c0-0.729-0.594-1.323-1.324-1.323H48.457z"/><path fill="#ee3e54" d="M62.2 47.899L62.2 53.868 64.307 52.113 66.414 53.868 66.414 47.899z"/><path fill="#472b29" d="M66.414,54.243c-0.086,0-0.171-0.03-0.24-0.087l-1.867-1.556l-1.867,1.556c-0.112,0.094-0.268,0.113-0.399,0.051c-0.132-0.062-0.216-0.194-0.216-0.339v-5.97c0-0.207,0.168-0.375,0.375-0.375h4.214c0.207,0,0.375,0.168,0.375,0.375v5.97c0,0.146-0.084,0.278-0.216,0.339C66.523,54.232,66.469,54.243,66.414,54.243z M64.308,51.738c0.085,0,0.17,0.029,0.24,0.087l1.492,1.243v-4.794h-3.464v4.794l1.492-1.243C64.137,51.766,64.222,51.738,64.308,51.738z"/><path fill="#f6cca4" d="M69.492,48.182H38.423c-2.2,0-4-1.8-4-4v-8.074c0-0.21,0.172-0.383,0.383-0.383h38.452c0.129,0,0.234,0.105,0.234,0.234v8.223C73.492,46.382,71.692,48.182,69.492,48.182z"/><path fill="#472b29" d="M69.492,48.882H38.423c-2.592,0-4.7-2.108-4.7-4.7v-8.074c0-0.597,0.486-1.083,1.083-1.083h38.452c0.515,0,0.934,0.419,0.934,0.934v8.223C74.192,46.774,72.084,48.882,69.492,48.882z M35.123,36.425v7.757c0,1.82,1.48,3.3,3.3,3.3h31.069c1.82,0,3.3-1.48,3.3-3.3v-7.757H35.123z"/><path fill="#472b29" d="M64.028 38.108H36.497c-.207 0-.375-.168-.375-.375s.168-.375.375-.375h27.531c.207 0 .375.168.375.375S64.235 38.108 64.028 38.108zM68.043 38.108h-2.294c-.207 0-.375-.168-.375-.375s.168-.375.375-.375h2.294c.207 0 .375.168.375.375S68.25 38.108 68.043 38.108zM71.485 38.108H69.19c-.207 0-.375-.168-.375-.375s.168-.375.375-.375h2.294c.207 0 .375.168.375.375S71.692 38.108 71.485 38.108zM53.27 67.36c-.207 0-.375-.168-.375-.375V56.851c0-.207.168-.375.375-.375s.375.168.375.375v10.133C53.645 67.192 53.477 67.36 53.27 67.36zM53.27 52.563c-.207 0-.375-.168-.375-.375v-3.441c0-.207.168-.375.375-.375s.375.168.375.375v3.441C53.645 52.395 53.477 52.563 53.27 52.563zM64.308 52.248c-.124 0-.225-.101-.225-.225v-3.719c0-.124.101-.225.225-.225s.225.101.225.225v3.719C64.533 52.147 64.432 52.248 64.308 52.248z"/><path fill="#472b29" d="M66.143 52.404c-.028 0-.057-.01-.08-.029l-1.703-1.427c-.053-.044-.06-.123-.016-.176.043-.054.123-.059.176-.016l1.703 1.427c.053.044.06.123.016.176C66.214 52.388 66.179 52.404 66.143 52.404zM66.143 51.125c-.028 0-.057-.01-.08-.029l-1.703-1.427c-.053-.044-.06-.123-.016-.176.043-.053.123-.059.176-.016l1.703 1.427c.053.044.06.123.016.176C66.214 51.11 66.179 51.125 66.143 51.125zM66.359 50.13c-.028 0-.057-.01-.08-.029l-1.703-1.427c-.053-.044-.06-.123-.016-.176.044-.053.123-.06.176-.016l1.703 1.427c.053.044.06.123.016.176C66.431 50.115 66.395 50.13 66.359 50.13z"/><g><path fill="#fdfcef" d="M77.031,73.646c1.883,0,3.517,0,3.54,0c2.11,0,3.821-1.674,3.821-3.739c0-1.802-1.302-3.305-3.035-3.66c0.02-0.158,0.034-0.317,0.034-0.48c0-2.139-1.772-3.873-3.957-3.873c-1.29,0-2.433,0.607-3.155,1.543c-0.185-2.381-2.358-4.218-4.9-3.913c-1.859,0.223-3.397,1.629-3.739,3.431c-0.11,0.578-0.098,1.139,0.011,1.665c-0.498-0.525-1.208-0.856-1.998-0.856c-1.446,0-2.627,1.102-2.72,2.494c-0.657-0.142-1.371-0.133-2.123,0.143c-1.438,0.528-2.462,1.853-2.522,3.356c-0.085,2.133,1.657,3.889,3.818,3.889c0.164,0,0.741,0,0.874,0h7.934 M70.553,73.646h0.36"/><path fill="#472b29" d="M80.571,74.146h-3.541c-0.276,0-0.5-0.224-0.5-0.5s0.224-0.5,0.5-0.5h3.541c1.831,0,3.32-1.453,3.32-3.239c0-1.524-1.108-2.857-2.635-3.17c-0.256-0.052-0.429-0.293-0.396-0.553c0.018-0.137,0.029-0.276,0.029-0.417c0-1.86-1.551-3.373-3.457-3.373c-1.092,0-2.098,0.491-2.759,1.348c-0.127,0.164-0.341,0.232-0.539,0.173c-0.198-0.059-0.339-0.234-0.355-0.44c-0.079-1.019-0.565-1.944-1.37-2.604c-0.828-0.68-1.883-0.983-2.973-0.852c-1.646,0.197-3.006,1.442-3.307,3.028c-0.094,0.494-0.091,0.988,0.01,1.471c0.045,0.219-0.06,0.441-0.258,0.544s-0.44,0.064-0.595-0.099c-0.428-0.452-1.009-0.7-1.636-0.7c-1.169,0-2.145,0.891-2.221,2.028c-0.01,0.145-0.082,0.279-0.198,0.366c-0.116,0.088-0.264,0.12-0.407,0.089c-0.637-0.139-1.241-0.098-1.845,0.124c-1.262,0.464-2.144,1.632-2.195,2.906c-0.035,0.875,0.283,1.708,0.895,2.345c0.635,0.661,1.495,1.024,2.423,1.024h8.808c0.276,0,0.5,0.224,0.5,0.5s-0.224,0.5-0.5,0.5h-8.808c-1.185,0-2.332-0.485-3.145-1.332c-0.802-0.835-1.218-1.928-1.172-3.078c0.066-1.674,1.211-3.203,2.849-3.805c0.611-0.225,1.24-0.308,1.88-0.244c0.344-1.396,1.629-2.424,3.135-2.424c0.493,0,0.977,0.113,1.414,0.323c0.009-0.242,0.037-0.484,0.083-0.726c0.382-2.009,2.097-3.586,4.17-3.834c1.362-0.161,2.685,0.218,3.726,1.072c0.748,0.613,1.278,1.409,1.546,2.302c0.791-0.648,1.785-1.007,2.842-1.007c2.458,0,4.457,1.962,4.457,4.373c0,0.034,0,0.068-0.001,0.102c1.764,0.555,3.003,2.188,3.003,4.038C84.892,72.244,82.954,74.146,80.571,74.146z M70.913,74.146h-0.359c-0.276,0-0.5-0.224-0.5-0.5s0.224-0.5,0.5-0.5h0.359c0.276,0,0.5,0.224,0.5,0.5S71.189,74.146,70.913,74.146z"/><path fill="#472b29" d="M78.863,68.343c-0.018,0-0.037-0.002-0.055-0.006c-0.135-0.03-0.219-0.164-0.188-0.299c0.038-0.167,0.095-0.328,0.169-0.479c0.605-1.224,2.272-1.676,3.722-1.006c0.125,0.058,0.18,0.207,0.122,0.332c-0.059,0.126-0.207,0.18-0.332,0.122c-1.206-0.559-2.579-0.209-3.063,0.774c-0.058,0.116-0.101,0.24-0.13,0.368C79.081,68.264,78.977,68.343,78.863,68.343z"/><g><path fill="#472b29" d="M73.705,74.146h-1.107c-0.276,0-0.5-0.224-0.5-0.5s0.224-0.5,0.5-0.5h1.107c0.276,0,0.5,0.224,0.5,0.5S73.981,74.146,73.705,74.146z"/></g></g><g><path fill="#fdfcef" d="M50.248,38.44c0.003,3.157-1.946,6.144-5.297,8.117l0,0c0,1.705,0.497,3.593,1.118,4.795c0.22,0.426-0.125,0.923-0.602,0.871c-3.092-0.34-6.022-1.867-7.579-3.393h-1.766c-7.802,0-14.126-4.652-14.126-10.39s6.324-10.39,14.126-10.39S50.248,32.702,50.248,38.44"/><path fill="#472b29" d="M45.534,52.726c-0.041,0-0.081-0.002-0.121-0.006c-3.218-0.354-6.158-1.933-7.726-3.391h-1.565c-8.065,0-14.626-4.885-14.626-10.89s6.561-10.89,14.626-10.89s14.626,4.885,14.626,10.89v0c0.002,3.276-1.922,6.323-5.293,8.397c0.053,1.646,0.558,3.317,1.058,4.286c0.186,0.361,0.159,0.792-0.07,1.126C46.236,52.55,45.895,52.726,45.534,52.726z M36.122,28.55c-7.513,0-13.626,4.437-13.626,9.89s6.113,9.89,13.626,9.89h1.766c0.131,0,0.256,0.051,0.35,0.143c1.402,1.375,4.199,2.915,7.284,3.253c0.055,0.005,0.081-0.021,0.097-0.043c0.022-0.032,0.024-0.066,0.006-0.101c-0.713-1.38-1.174-3.353-1.174-5.025c0-0.177,0.094-0.341,0.246-0.431c3.212-1.892,5.054-4.693,5.051-7.686v0C49.748,32.987,43.635,28.55,36.122,28.55z M50.748,38.44h0.01H50.748z"/><path fill="#472b29" d="M33.465 34.601h-3.89c-.138 0-.25-.112-.25-.25s.112-.25.25-.25h3.89c.138 0 .25.112.25.25S33.603 34.601 33.465 34.601zM43.405 34.601h-8.211c-.138 0-.25-.112-.25-.25s.112-.25.25-.25h8.211c.138 0 .25.112.25.25S43.543 34.601 43.405 34.601zM38.651 37.195H27.847c-.138 0-.25-.112-.25-.25s.112-.25.25-.25h10.805c.138 0 .25.112.25.25S38.789 37.195 38.651 37.195zM45.566 37.195H40.38c-.138 0-.25-.112-.25-.25s.112-.25.25-.25h5.186c.138 0 .25.112.25.25S45.704 37.195 45.566 37.195zM45.566 39.787H32.168c-.138 0-.25-.112-.25-.25s.112-.25.25-.25h13.397c.138 0 .25.112.25.25S45.704 39.787 45.566 39.787zM43.405 42.813H35.69c-.138 0-.25-.112-.25-.25s.112-.25.25-.25h7.715c.138 0 .25.112.25.25S43.543 42.813 43.405 42.813z"/><g><path fill="#f4989e" d="M28.32 40.342A5.388 5.388 0 1 0 28.32 51.117999999999995A5.388 5.388 0 1 0 28.32 40.342Z"/><path fill="#472b29" d="M28.32,51.619c-3.247,0-5.889-2.642-5.889-5.889c0-3.247,2.642-5.888,5.889-5.888c3.247,0,5.888,2.642,5.888,5.888C34.208,48.977,31.566,51.619,28.32,51.619z M28.32,40.842c-2.696,0-4.889,2.193-4.889,4.888c0,2.696,2.193,4.889,4.889,4.889c2.695,0,4.888-2.193,4.888-4.889C33.208,43.035,31.015,40.842,28.32,40.842z"/></g><g><path fill="#ee3e54" d="M28.32,44.819c1.083-1.547,2.598-0.843,2.598,0.639c0,1.358-1.811,2.515-2.598,2.953c-0.787-0.438-2.598-1.595-2.598-2.953C25.722,43.976,27.236,43.272,28.32,44.819z"/><path fill="#472b29" d="M28.32,48.785c-0.063,0-0.126-0.016-0.183-0.047c-1.042-0.581-2.79-1.78-2.79-3.281c0-0.88,0.458-1.592,1.165-1.815c0.615-0.193,1.268,0.023,1.808,0.586c0.539-0.562,1.191-0.779,1.807-0.586c0.708,0.223,1.165,0.936,1.165,1.816c0,1.501-1.748,2.7-2.79,3.281C28.446,48.77,28.383,48.785,28.32,48.785z M26.955,44.323c-0.074,0-0.146,0.011-0.217,0.033c-0.389,0.123-0.641,0.555-0.641,1.101c0,1.084,1.522,2.108,2.223,2.521c0.7-0.413,2.222-1.437,2.222-2.521c0-0.546-0.251-0.978-0.641-1.101c-0.413-0.128-0.887,0.124-1.274,0.677c-0.141,0.201-0.474,0.201-0.614,0C27.692,44.575,27.31,44.323,26.955,44.323z"/></g></g></svg>